<svg xmlns="http://www.w3.org/2000/svg" width="437" height="377">
  <g fill="none" fill-rule="evenodd">
    <path stroke="#812525" stroke-width="20" d="M218 11.54487L98 80.7756392V219.224361l120 69.230769 120-69.230769V80.7756392L218 11.54487z"/>
    <path fill="#CA5454" fill-rule="nonzero" d="M218 41l95 54.625v109.25L218 259.5l-95-54.625V95.625z"/>
    <g fill-rule="nonzero">
      <path fill="#242424" d="M248.8 124.956044h3.2c8.836556 0 16 7.2327437 16 16.1547853v62.1959237c0 8.922042-7.163444 16.154785-16 16.154785h-68c-8.836556 0-16-7.232743-16-16.154785v-62.1959237c0-8.9220416 7.163444-16.1547853 16-16.1547853h2.4v1.2116089c0 5.1301739 4.1189803 9.2890016 9.2 9.2890016s9.2-4.1588277 9.2-9.2890016v-1.2116089h25.6v1.2116089c0 5.1301739 4.1189803 9.2890016 9.2 9.2890016s9.2-4.1588277 9.2-9.2890016v-1.2116089z"/>
      <path fill="#DFDFDF" d="M201.9874411 126.9993132h-.0131321c-.205996 3.1545973-2.8097848 5.6490384-5.9915774 5.6490384-3.1817926 0-5.7855815-2.4944411-5.9915775-5.6490384h-.0131321v-17.7541209C189.978022 93.6458033 202.5238889 81 218 81s28.021978 12.6458033 28.021978 28.2451923v17.7541209h-.0131321c-.205996 3.1545973-2.8097849 5.6490384-5.9915775 5.6490384s-5.7855814-2.4944411-5.9915774-5.6490384h-.0131321v-17.7541209c0-8.9139365-7.1690668-16.1401099-16.0125589-16.1401099-8.8434921 0-16.0125589 7.2261734-16.0125589 16.1401099v17.7541209z"/>
    </g>
    <path fill="#CA5454" fill-rule="nonzero" d="M225.333333 171.95882v15.074513C225.333333 190.880917 222.050088 194 218 194s-7.333333-3.119083-7.333333-6.966667V171.95882C209.011767 170.263844 208 167.99417 208 165.5c0-5.246705 4.477153-9.5 10-9.5s10 4.253295 10 9.5c0 2.49417-1.011767 4.763844-2.666667 6.45882z"/>
    <path fill="#242424" d="M10.6426924 358.58c0 1.680008.3033303 3.103328.91 4.27.6066697 1.166673 1.4116616 2.111663 2.415 2.835 1.0033383.723337 2.1816599 1.259998 3.535 1.61 1.3533401.350002 2.7533261.525 4.2.525.9800049 0 2.0299944-.081666 3.15-.245 1.1200056-.163334 2.1699951-.478331 3.15-.945.9800049-.466669 1.7966634-1.108329 2.45-1.925.6533366-.816671.98-1.854994.98-3.115 0-1.35334-.4316624-2.449996-1.295-3.29-.8633377-.840004-1.994993-1.539997-3.395-2.1s-2.9866578-1.049998-4.76-1.47c-1.7733422-.420002-3.5699909-.886664-5.39-1.4-1.866676-.466669-3.6866578-1.03833-5.46-1.715-1.77334224-.67667-3.35999304-1.551661-4.76000004-2.625-1.400007-1.073339-2.53166235-2.414992-3.395-4.025-.86333765-1.610008-1.295-3.558322-1.295-5.845 0-2.56668.54832785-4.794991 1.645-6.685s2.5316578-3.464994 4.305-4.725c1.7733422-1.260006 3.77998884-2.19333 6.02000004-2.8 2.2400112-.60667 4.4799888-.91 6.72-.91 2.6133464 0 5.1216546.291664 7.525.875 2.4033453.583336 4.538324 1.528327 6.405 2.835s3.3483278 2.97499 4.445 5.005c1.0966721 2.03001 1.645 4.491652 1.645 7.385h-10.64c-.0933338-1.493341-.4083307-2.729995-.945-3.71-.5366694-.980005-1.2483289-1.749997-2.135-2.31-.8866711-.560003-1.901661-.956666-3.045-1.19-1.1433391-.233334-2.3916599-.35-3.745-.35-.8866711 0-1.7733289.093332-2.66.28-.8866711.186668-1.6916631.513331-2.415.98-.723337.466669-1.318331 1.049997-1.785 1.75-.466669.700003-.7 1.586661-.7 2.66 0 .980005.1866648 1.77333.56 2.38.3733352.60667 1.1083278 1.166664 2.205 1.68 1.0966721.513336 2.6133236 1.026664 4.55 1.54 1.9366763.513336 4.4683177 1.166663 7.595 1.96.933338.186668 2.228325.524998 3.885 1.015 1.6566749.490002 3.3016585 1.271661 4.935 2.345 1.6333415 1.073339 3.044994 2.508324 4.235 4.305 1.1900059 1.796676 1.785 4.094986 1.785 6.895 0 2.286678-.4433289 4.40999-1.33 6.37-.8866711 1.96001-2.2049913 3.65166-3.955 5.075-1.7500088 1.42334-3.9199871 2.531663-6.51 3.325-2.590013.793337-5.5883163 1.19-8.995 1.19-2.7533471 0-5.4249871-.33833-8.015-1.015-2.590013-.67667-4.87665679-1.738326-6.86000004-3.185s-3.5583275-3.289989-4.725-5.53c-1.1666725-2.240011-1.7266669-4.899985-1.68-7.98H10.6426924zm55.59-33.39h11.27l18.69 49.98h-11.41l-3.78-11.13h-18.69l-3.92 11.13h-11.06l18.9-49.98zm-1.05 30.66h12.95l-6.3-18.34h-.14l-6.51 18.34zM104.533 325.19h10.99v40.74h24.36v9.24h-35.35zM154.663 334.43h-14.98v-9.24h40.95v9.24h-14.98v40.74h-10.99zM190.373 325.19h37.38v9.24h-26.39v10.71h24.22v8.54h-24.22v12.25h26.95v9.24h-37.94z"/>
    <path fill="#812525" d="M253.382692 325.19h11.27l18.69 49.98h-11.41l-3.78-11.13h-18.69l-3.92 11.13h-11.06l18.9-49.98zm-1.05 30.66h12.95l-6.3-18.34h-.14l-6.51 18.34zm81.77.42c0 6.766701-1.889981 11.794984-5.67 15.085-3.780019 3.290016-9.006633 4.935-15.68 4.935-6.7667 0-12.004981-1.633317-15.715-4.9-3.710018-3.266683-5.565-8.306633-5.565-15.12v-31.08h10.99v31.08c0 1.35334.116666 2.683327.35 3.99.233335 1.306673.72333 2.461662 1.47 3.465.746671 1.003338 1.784994 1.819997 3.115 2.45 1.330007.630003 3.114989.945 5.355.945 3.92002 0 6.62666-.874991 8.12-2.625 1.493341-1.750009 2.24-4.491648 2.24-8.225v-31.08h10.99v31.08zM358.613 334.43h-14.98v-9.24h40.95v9.24h-14.98v40.74h-10.99zM394.323 325.19h10.99v19.18h20.23v-19.18h10.99v49.98h-10.99v-21.56h-20.23v21.56h-10.99z"/>
  </g>
</svg>
