<svg xmlns="http://www.w3.org/2000/svg" width="300" height="300">
  <g fill="none" fill-rule="evenodd">
    <path stroke="#812525" stroke-width="20" d="M150 11.54487L30 80.7756392V219.224361l120 69.230769 120-69.230769V80.7756392L150 11.54487z"/>
    <path fill="#CA5454" fill-rule="nonzero" d="M150 41l95 54.625v109.25L150 259.5l-95-54.625V95.625z"/>
    <g fill-rule="nonzero">
      <path fill="#242424" d="M180.8 124.956044h3.2c8.836556 0 16 7.2327437 16 16.1547853v62.1959237c0 8.922042-7.163444 16.154785-16 16.154785h-68c-8.836556 0-16-7.232743-16-16.154785v-62.1959237c0-8.9220416 7.163444-16.1547853 16-16.1547853h2.4v1.2116089c0 5.1301739 4.1189803 9.2890016 9.2 9.2890016s9.2-4.1588277 9.2-9.2890016v-1.2116089h25.6v1.2116089c0 5.1301739 4.1189803 9.2890016 9.2 9.2890016s9.2-4.1588277 9.2-9.2890016v-1.2116089z"/>
      <path fill="#DFDFDF" d="M133.9874411 126.9993132h-.0131321c-.205996 3.1545973-2.8097848 5.6490384-5.9915774 5.6490384-3.1817926 0-5.7855815-2.4944411-5.9915775-5.6490384h-.0131321v-17.7541209C121.978022 93.6458033 134.5238889 81 150 81s28.021978 12.6458033 28.021978 28.2451923v17.7541209h-.0131321c-.205996 3.1545973-2.8097849 5.6490384-5.9915775 5.6490384s-5.7855814-2.4944411-5.9915774-5.6490384h-.0131321v-17.7541209c0-8.9139365-7.1690668-16.1401099-16.0125589-16.1401099-8.8434921 0-16.0125589 7.2261734-16.0125589 16.1401099v17.7541209z"/>
    </g>
    <path fill="#CA5454" fill-rule="nonzero" d="M157.333333 171.95882v15.074513C157.333333 190.880917 154.050088 194 150 194s-7.333333-3.119083-7.333333-6.966667V171.95882C141.011767 170.263844 140 167.99417 140 165.5c0-5.246705 4.477153-9.5 10-9.5s10 4.253295 10 9.5c0 2.49417-1.011767 4.763844-2.666667 6.45882z"/>
  </g>
</svg>
